<svg width="30" height="23" viewBox="0 0 30 23" fill="none" xmlns="http://www.w3.org/2000/svg">
<g clip-path="url(#clip0_5639_39396)">
<path fill-rule="evenodd" clip-rule="evenodd" d="M0 0H42.75V1.73147H0V0ZM0 3.46289H42.75V5.19436H0V3.46289ZM0 6.92138H42.75V8.6572H0V6.92138ZM0 10.3843H42.75V12.1157H0V10.3843ZM0 13.8472H42.75V15.5786H0V13.8472ZM0 17.3056H42.75V19.0371H0V17.3056ZM0 20.7685H42.75V22.5H0V20.7685Z" fill="#BD3D44"/>
<path fill-rule="evenodd" clip-rule="evenodd" d="M0 1.73047H42.75V3.46189H0V1.73047ZM0 5.19331H42.75V6.92037H0V5.19331ZM0 8.65184H42.75V10.3833H0V8.65184ZM0 12.1147H42.75V13.8462H0V12.1147ZM0 15.5776H42.75V17.309H0V15.5776ZM0 19.0361H42.75V20.7676H0V19.0361Z" fill="white"/>
<path fill-rule="evenodd" clip-rule="evenodd" d="M0 0H17.0991V12.1157H0V0Z" fill="#192F5D"/>
<path fill-rule="evenodd" clip-rule="evenodd" d="M1.4238 0.519531L1.58201 0.998453H2.08301L1.67866 1.29292L1.83251 1.7763L1.4238 1.47747L1.01951 1.77189L1.1733 1.29292L0.764648 0.998453H1.27441L1.4238 0.519531ZM4.27587 0.519531L4.42966 0.998453H4.93502L4.52632 1.29292L4.68016 1.7763L4.27587 1.47747L3.86716 1.77189L4.02096 1.29292L3.61666 0.998453H4.11766L4.27587 0.519531ZM7.12352 0.519531L7.28173 0.9985H7.77832L7.37402 1.29297L7.52777 1.77634L7.11912 1.47752L6.71482 1.77194L6.86862 1.29297L6.45991 0.9985H6.96532L7.12352 0.519531ZM9.97559 0.519531L10.1293 0.9985H10.6347L10.226 1.29297L10.3842 1.77634L9.97554 1.47752L9.56688 1.77194L9.72509 1.29297L9.31638 0.9985H9.81738L9.97559 0.519531ZM12.8232 0.519531L12.9814 0.9985H13.4824L13.0781 1.29297L13.2319 1.77634L12.8232 1.47752L12.4189 1.77194L12.5727 1.29297L12.1684 0.9985H12.6694L12.8232 0.519531ZM15.6753 0.519531L15.8291 0.9985H16.3345L15.9258 1.29297L16.084 1.77634L15.6753 1.47752L15.2666 1.77194L15.4248 1.29297L15.0161 0.9985H15.5215L15.6753 0.519531ZM2.85204 1.73233L3.00584 2.21139H3.5112L3.10249 2.50577L3.25193 2.98483L2.8564 2.69036L2.44774 2.98478L2.59273 2.50581L2.19724 2.21134H2.69824L2.85204 1.73233ZM5.6997 1.73233L5.8579 2.21139H6.35885L5.95015 2.50577L6.1084 2.98483L5.69965 2.69036L5.29099 2.98478L5.44919 2.50581L5.04049 2.21134H5.54585L5.6997 1.73233ZM8.55176 1.73233L8.70551 2.21139H9.21091L8.80221 2.50577L8.95601 2.98483L8.55171 2.69036L8.14305 2.98478L8.29685 2.50586L7.89255 2.21139H8.39355L8.55176 1.73233ZM11.3994 1.73233L11.5576 2.21139H12.0586L11.6499 2.50577L11.8081 2.98483L11.3994 2.69036L10.9951 2.98478L11.1489 2.50581L10.7402 2.21134H11.25L11.3994 1.73233ZM14.2514 1.73233L14.4052 2.21139H14.9106L14.5019 2.50577L14.6557 2.98483L14.2514 2.69036L13.8427 2.98478L13.9966 2.50581L13.5923 2.21134H14.0932L14.2514 1.73233ZM1.4238 2.94095L1.58201 3.42873H2.08301L1.67866 3.72316L1.83251 4.20217L1.4238 3.90334L1.01951 4.20217L1.1733 3.71875L0.764648 3.42437H1.27441L1.4238 2.94095ZM4.27587 2.94095L4.42966 3.42423H4.93502L4.52632 3.71866L4.68016 4.19772L4.27587 3.89884L3.86716 4.19767L4.02096 3.7143L3.61666 3.41987H4.11766L4.27587 2.94095ZM7.12352 2.94095L7.28173 3.42433H7.77832L7.37402 3.71875L7.52777 4.19781L7.11912 3.89894L6.71482 4.19777L6.86862 3.71439L6.45991 3.41997H6.96532L7.12352 2.94095ZM9.97559 2.94095L10.1293 3.42433H10.6347L10.226 3.71875L10.3842 4.19781L9.97554 3.89894L9.56688 4.19777L9.72509 3.71439L9.31638 3.41997H9.81738L9.97559 2.94095ZM12.8232 2.94095L12.9814 3.42433H13.4824L13.0781 3.7187L13.2319 4.19777L12.8232 3.89889L12.4189 4.19772L12.5727 3.71434L12.1684 3.41992H12.6694L12.8232 2.94095ZM15.6753 2.94095L15.8291 3.42433H16.3345L15.9258 3.71875L16.084 4.19781L15.6753 3.89894L15.2666 4.19777L15.4248 3.71439L15.0161 3.41997H15.5215L15.6753 2.94095ZM2.85204 4.1538L3.00584 4.63281H3.5112L3.10249 4.92719L3.25634 5.41061L2.85204 5.11178L2.44334 5.4062L2.59713 4.92723L2.19284 4.63281H2.69388L2.85204 4.1538ZM5.6997 4.1538L5.8579 4.63281H6.35885L5.95015 4.92719L6.1084 5.41061L5.69965 5.11178L5.29099 5.4062L5.44919 4.92723L5.04049 4.63281H5.54585L5.6997 4.1538ZM8.55176 4.1538L8.70551 4.63281H9.21091L8.80221 4.92719L8.95601 5.41061L8.55171 5.11178L8.14305 5.4062L8.29685 4.92723L7.89255 4.63281H8.39355L8.55176 4.1538ZM11.3994 4.1538L11.5576 4.63281H12.0586L11.6543 4.92719L11.8081 5.41061L11.3994 5.11178L10.9951 5.4062L11.1489 4.92723L10.7402 4.63281H11.25L11.3994 4.1538ZM14.2514 4.1538L14.4052 4.63281H14.9106L14.5019 4.92719L14.6557 5.41061L14.2514 5.11178L13.8427 5.4062L13.9966 4.92723L13.5923 4.63281H14.0932L14.2514 4.1538ZM1.4238 5.36669L1.58201 5.8457H2.08301L1.67866 6.14008L1.83251 6.6235L1.4238 6.32467L1.01951 6.61909L1.1733 6.14012L0.764648 5.8457H1.27441L1.4238 5.36669ZM4.27587 5.36669L4.42966 5.8457H4.93502L4.52632 6.14008L4.68016 6.61914L4.27587 6.32467L3.86716 6.61909L4.02096 6.14012L3.61666 5.8457H4.11766L4.27587 5.36669ZM7.12352 5.36669L7.28173 5.8457H7.77832L7.37402 6.14008L7.52777 6.6235L7.11912 6.32467L6.71482 6.61909L6.86862 6.14012L6.45991 5.8457H6.96532L7.12352 5.36669ZM9.97559 5.36669L10.1293 5.8457H10.6347L10.226 6.14008L10.3842 6.6235L9.97554 6.32467L9.56688 6.61909L9.72509 6.14012L9.31638 5.8457H9.81738L9.97559 5.36669ZM12.8232 5.36669L12.9814 5.8457H13.4824L13.0781 6.14008L13.2319 6.6235L12.8232 6.32467L12.4189 6.61909L12.5727 6.14012L12.1684 5.8457H12.6694L12.8232 5.36669ZM15.6753 5.36669L15.8291 5.8457H16.3345L15.9258 6.14008L16.084 6.6235L15.6753 6.32467L15.2666 6.61909L15.4248 6.14012L15.0161 5.8457H15.5215L15.6753 5.36669ZM2.85204 6.57958L3.00584 7.05859H3.5112L3.10249 7.35297L3.25634 7.83203L2.85204 7.5332L2.44334 7.83203L2.59713 7.34861L2.19284 7.05419H2.69388L2.85204 6.57958ZM5.6997 6.57958L5.8579 7.05859H6.35885L5.95015 7.35297L6.1084 7.83203L5.69965 7.5332L5.29099 7.83203L5.44919 7.34861L5.04049 7.05419H5.54585L5.6997 6.57958ZM8.55176 6.57958L8.70551 7.05859H9.21091L8.80221 7.35297L8.95601 7.83203L8.55171 7.5332L8.14305 7.83203L8.29685 7.34861L7.89255 7.05419H8.39355L8.55176 6.57958ZM11.3994 6.57958L11.5576 7.05859H12.0586L11.6543 7.35297L11.8081 7.83203L11.3994 7.5332L10.9951 7.83203L11.1489 7.34861L10.7402 7.05419H11.25L11.3994 6.57958ZM14.2514 6.57958L14.4052 7.05859H14.9106L14.5019 7.35297L14.6557 7.83203L14.2514 7.5332L13.8427 7.83203L13.9966 7.34861L13.5923 7.05419H14.0932L14.2514 6.57958ZM1.4238 7.78806L1.58201 8.27148H2.08301L1.67866 8.56586L1.83251 9.04051L1.4238 8.74609L1.01951 9.04047L1.1733 8.5615L0.764648 8.26708H1.27441L1.4238 7.78806ZM4.27587 7.78806L4.42966 8.27148H4.93502L4.52632 8.56586L4.68457 9.04051L4.27582 8.74609L3.86716 9.04047L4.02537 8.5615L3.61666 8.26708H4.11766L4.27587 7.78806ZM7.12352 7.78806L7.28173 8.27148H7.77832L7.37402 8.56586L7.52777 9.04051L7.11912 8.74609L6.71482 9.04047L6.86862 8.5615L6.45991 8.26708H6.96532L7.12352 7.78806ZM9.97559 7.78806L10.1293 8.27148H10.6347L10.226 8.56586L10.3842 9.04051L9.97554 8.74609L9.56688 9.04047L9.72509 8.5615L9.31638 8.26708H9.81738L9.97559 7.78806ZM12.8232 7.78806L12.9814 8.27148H13.4824L13.0781 8.56586L13.2319 9.04051L12.8232 8.74609L12.4189 9.04047L12.5727 8.5615L12.1684 8.26708H12.6694L12.8232 7.78806ZM15.6753 7.78806L15.8291 8.27148H16.3345L15.9258 8.56586L16.084 9.04051L15.6753 8.74609L15.2666 9.04047L15.4248 8.5615L15.0161 8.26708H15.5215L15.6753 7.78806ZM2.85204 9.00095L3.00584 9.47997H3.5112L3.10249 9.77439L3.25634 10.2578L2.85204 9.95898L2.44334 10.2534L2.59713 9.77439L2.19284 9.47997H2.69388L2.85204 9.00095ZM5.6997 9.00095L5.8579 9.47997H6.35885L5.95015 9.77439L6.1084 10.2578L5.69965 9.95898L5.29099 10.2534L5.44919 9.77439L5.04049 9.47997H5.54585L5.6997 9.00095ZM8.55176 9.00095L8.70551 9.47997H9.21091L8.80221 9.77439L8.95601 10.2578L8.55171 9.95898L8.14305 10.2534L8.29685 9.77439L7.89255 9.47997H8.39355L8.55176 9.00095ZM11.3994 9.00095L11.5576 9.47997H12.0586L11.6543 9.77439L11.8081 10.2578L11.3994 9.95898L10.9951 10.2534L11.1489 9.77439L10.7402 9.47997H11.25L11.3994 9.00095ZM14.2514 9.00095L14.4052 9.47997H14.9106L14.5019 9.77439L14.6557 10.2578L14.2514 9.95898L13.8427 10.2534L13.9966 9.77439L13.5923 9.47997H14.0932L14.2514 9.00095ZM1.4238 10.2138L1.58201 10.6929H2.08301L1.67866 10.9873L1.83251 11.4663L1.4238 11.1719L1.01951 11.4662L1.1733 10.9829L0.764648 10.6885H1.27441L1.4238 10.2138ZM4.27587 10.2138L4.42966 10.6929H4.93502L4.52632 10.9873L4.68457 11.4663L4.27582 11.1719L3.86716 11.4662L4.02537 10.9829L3.61666 10.6885H4.11766L4.27587 10.2138ZM7.12352 10.2138L7.28173 10.6929H7.77832L7.38279 10.9873L7.53659 11.4663L7.12788 11.1719L6.72359 11.4662L6.87743 10.9829L6.46873 10.6885H6.97409L7.12352 10.2138ZM9.97559 10.2138L10.1293 10.6929H10.6347L10.226 10.9873L10.3842 11.4663L9.97554 11.1719L9.56688 11.4662L9.72509 10.9829L9.31638 10.6885H9.81738L9.97559 10.2138ZM12.8232 10.2138L12.9814 10.6929H13.4824L13.0781 10.9873L13.2319 11.4663L12.8232 11.1719L12.4189 11.4662L12.5727 10.9829L12.1684 10.6885H12.6694L12.8232 10.2138ZM15.6753 10.2138L15.8291 10.6929H16.3345L15.9258 10.9873L16.084 11.4663L15.6753 11.1719L15.2666 11.4662L15.4248 10.9829L15.0161 10.6885H15.5215L15.6753 10.2138Z" fill="white"/>
</g>
<defs>
<clipPath id="clip0_5639_39396">
<rect width="30" height="22.5" fill="white"/>
</clipPath>
</defs>
</svg>
