<svg width="30" height="23" viewBox="0 0 30 23" fill="none" xmlns="http://www.w3.org/2000/svg">
<g clip-path="url(#clip0_5639_39415)">
<path fill-rule="evenodd" clip-rule="evenodd" d="M0 0H30V22.5H0V0Z" fill="#229E45"/>
<path fill-rule="evenodd" clip-rule="evenodd" d="M15.0656 20.4375L29.1984 11.2641L14.9812 2.0625L0.801514 11.2828L15.0656 20.4375Z" fill="#F8E509"/>
<path fill-rule="evenodd" clip-rule="evenodd" d="M21.225 11.25C21.225 14.5453 18.5484 17.2172 15.2438 17.2172C14.0628 17.2153 12.909 16.8634 11.928 16.2059C10.9471 15.5483 10.1831 14.6147 9.7327 13.5231C9.28228 12.4314 9.16563 11.2307 9.39749 10.0728C9.62935 8.91485 10.1993 7.85165 11.0353 7.01759C11.8714 6.18354 12.9359 5.61607 14.0944 5.38693C15.2529 5.1578 16.4533 5.27728 17.5439 5.73027C18.6345 6.18326 19.5663 6.94942 20.2215 7.9319C20.8767 8.91438 21.2259 10.0691 21.225 11.25Z" fill="#2B49A3"/>
<path fill-rule="evenodd" clip-rule="evenodd" d="M13.2797 14.8273L13.0922 14.7195L12.9047 14.8133L12.9469 14.6023L12.7969 14.443L13.0079 14.4195L13.111 14.232L13.2 14.4289L13.4063 14.4664L13.2516 14.607M17.2829 15.8398L17.1 15.732L16.9125 15.8258L16.95 15.6148L16.8047 15.4602L17.0157 15.4367L17.1141 15.2445L17.2079 15.4414L17.4141 15.4789L17.2547 15.6242M15.5579 14.218L15.3985 14.1242L15.2344 14.2086L15.2719 14.0258L15.1407 13.8898L15.3282 13.8711L15.4125 13.7023L15.4875 13.8758L15.6704 13.9086L15.5297 14.0352M19.6079 13.6367L19.4485 13.543L19.2844 13.6273L19.3219 13.4445L19.1954 13.3133L19.3782 13.2945L19.4625 13.1305L19.5375 13.2992L19.7157 13.332L19.5797 13.4539M15.4875 12.4227L15.3 12.3195L15.1125 12.4133L15.15 12.1977L15.0047 12.043L15.2157 12.0195L15.3141 11.8273L15.4079 12.0242L15.6141 12.0617L15.4547 12.2117M10.5516 10.5711L10.3641 10.468L10.1766 10.5617L10.2235 10.3461L10.0688 10.1914L10.2844 10.168L10.3782 9.97578L10.4719 10.1727L10.6782 10.2102L10.5235 10.3555M11.1469 13.0367L10.9594 12.9289L10.7719 13.0227L10.8141 12.8117L10.6641 12.657L10.875 12.6289L10.9735 12.4414L11.0672 12.6383L11.2735 12.6758L11.1188 12.8211M17.3063 9.66641L17.1375 9.57266L16.9688 9.65703L17.0063 9.46953L16.875 9.32891L17.0625 9.30547L17.1516 9.13672L17.2313 9.31484L17.4188 9.34766L17.2782 9.47422M16.9641 11.2695L16.8375 11.1945L16.7016 11.2602L16.7297 11.1102L16.6266 11.0023L16.7766 10.9836L16.8469 10.8523L16.9079 10.993L17.0485 11.0164L16.9454 11.1195M10.2797 13.482L10.1532 13.4117L10.0266 13.4727L10.0547 13.332L9.9563 13.2289L10.0969 13.2102L10.1625 13.0836L10.2235 13.2148L10.3641 13.243L10.2563 13.3367M19.6407 14.0539L19.5375 14.0023L19.4344 14.0492L19.4579 13.9414L19.3782 13.8664L19.4907 13.8523L19.5469 13.7586L19.5938 13.8523L19.711 13.8758L19.6219 13.9461" fill="#FFFFEF"/>
<path fill-rule="evenodd" clip-rule="evenodd" d="M10.2797 13.4805L10.1532 13.4102L10.0266 13.4711L10.0547 13.3305L9.9563 13.2273L10.0969 13.2086L10.1625 13.082L10.2235 13.2133L10.3641 13.2414L10.2563 13.3352" fill="#FFFFEF"/>
<path fill-rule="evenodd" clip-rule="evenodd" d="M10.2797 13.482L10.1532 13.4117L10.0266 13.4727L10.0547 13.332L9.9563 13.2289L10.0969 13.2102L10.1625 13.0836L10.2235 13.2148L10.3641 13.243L10.2563 13.3367M12.2391 13.4773L12.1172 13.4117L11.9907 13.4727L12.0188 13.332L11.9204 13.2289L12.061 13.2102L12.1266 13.0836L12.1875 13.2148L12.3282 13.2383L12.2204 13.3367M11.9954 14.1336L11.8735 14.0633L11.7469 14.1289L11.775 13.9883L11.6766 13.8805L11.8172 13.8617L11.8829 13.7352L11.9438 13.8664L12.0844 13.8945L11.9766 13.9883M16.0735 12.9477L15.9516 12.8727L15.8204 12.9383L15.8485 12.7977L15.7547 12.6898L15.8954 12.6758L15.961 12.5492L16.0172 12.6805L16.1579 12.7039L16.0547 12.8023M14.8782 12.943L14.7516 12.8727L14.625 12.9383L14.6532 12.7977L14.5594 12.6898L14.7 12.6758L14.7657 12.5445L14.8219 12.6805L14.9625 12.7039L14.8594 12.8023M11.6344 12.5305L11.5547 12.4836L11.475 12.5211L11.4938 12.432L11.4329 12.3664L11.5219 12.357L11.5594 12.2773L11.5969 12.3617L11.686 12.3758L11.6204 12.4367M19.486 14.5648L19.3641 14.4945L19.2375 14.5602L19.2657 14.4195L19.1672 14.3117L19.3079 14.293L19.3735 14.1664L19.4344 14.2977L19.575 14.3258L19.4672 14.4195M18.4922 14.7008L18.3891 14.6352L18.2813 14.6914L18.3047 14.5695L18.225 14.4852L18.3422 14.4711L18.3985 14.3633L18.4454 14.4758L18.5625 14.4945L18.4735 14.5789M18.961 14.6867L18.8672 14.6305L18.7688 14.6773L18.7875 14.5695L18.7125 14.4898L18.8204 14.4758L18.8719 14.382L18.9188 14.4758L19.0266 14.4992L18.9469 14.5742M20.311 13.5055L20.2172 13.4586L20.1235 13.5055L20.1469 13.3977L20.0719 13.318L20.1797 13.3039L20.2266 13.2102L20.2735 13.3086L20.3719 13.3273L20.2969 13.4023M18.4782 15.3617L18.361 15.2961L18.2344 15.3523L18.2625 15.2211L18.1688 15.1273L18.3094 15.1133L18.3704 14.9961L18.4266 15.118L18.5672 15.1414L18.4594 15.2305M18.4875 15.8961L18.375 15.8305L18.2625 15.8914L18.2907 15.7602L18.2016 15.6664L18.3282 15.6477L18.3844 15.5305L18.436 15.6523L18.5625 15.6758L18.4688 15.7695M17.5782 14.6867L17.4891 14.6305L17.3954 14.6773L17.4141 14.5742L17.3438 14.4945L17.4469 14.4852L17.4938 14.3914L17.5407 14.4852L17.6438 14.5039L17.5688 14.5789M16.7344 14.6867L16.6407 14.6305L16.5469 14.6773L16.5704 14.5742L16.4954 14.4945L16.6032 14.4852L16.65 14.3914L16.6969 14.4852L16.7954 14.5039L16.7204 14.5789M15.2954 13.4258L15.2016 13.3742L15.1079 13.4211L15.1313 13.3133L15.0563 13.2383L15.1594 13.2242L15.2063 13.1305L15.2532 13.2242L15.3563 13.2477L15.2813 13.318M15.4547 15.9898L15.3797 15.9477L15.2954 15.9898L15.3141 15.8961L15.2532 15.8305L15.3422 15.8211L15.3844 15.7414L15.4219 15.8258L15.511 15.8398L15.4454 15.9008M13.2797 11.8414L13.0922 11.7336L12.9047 11.8273L12.9469 11.6164L12.7969 11.4617L13.0079 11.4336L13.111 11.2461L13.2 11.443L13.4063 11.4805L13.2516 11.6258" fill="#FFFFEF"/>
<path fill-rule="evenodd" clip-rule="evenodd" d="M20.8312 13.3975C20.9474 13.0962 21.0383 12.7858 21.1031 12.4694C17.925 9.68034 14.3859 8.25065 9.91406 8.54596C9.75187 8.85979 9.61851 9.1877 9.51562 9.52565C14.8125 9.0194 18.7031 11.3631 20.8312 13.3975Z" fill="white"/>
<path d="M19.4063 11.8312L19.5141 11.8922C19.498 11.924 19.493 11.9603 19.5 11.9953C19.511 12.0292 19.5345 12.0577 19.5656 12.075C19.5985 12.0984 19.6313 12.1125 19.6594 12.1078C19.6875 12.1078 19.7063 12.0938 19.7203 12.075C19.7285 12.0626 19.7318 12.0475 19.7297 12.0328C19.7259 12.0155 19.7178 11.9994 19.7063 11.9859C19.6969 11.9719 19.6735 11.9391 19.636 11.9016C19.5974 11.8618 19.5685 11.8137 19.5516 11.7609C19.5399 11.721 19.5429 11.6782 19.5601 11.6404C19.5773 11.6025 19.6076 11.5721 19.6453 11.5547C19.6794 11.5405 19.7171 11.5372 19.7531 11.5453C19.7972 11.5555 19.8387 11.5746 19.875 11.6016C19.9406 11.6484 19.9828 11.6953 19.9969 11.7516C20.0034 11.7779 20.0042 11.8053 19.9994 11.8319C19.9945 11.8586 19.9841 11.8839 19.9688 11.9062L19.8563 11.8359C19.8703 11.8078 19.875 11.7797 19.8656 11.7563C19.861 11.7328 19.8422 11.7094 19.8094 11.6906C19.7853 11.6713 19.7559 11.6598 19.725 11.6578C19.7165 11.6575 19.7081 11.6596 19.7007 11.6637C19.6933 11.6678 19.6871 11.6739 19.6828 11.6812C19.6735 11.6953 19.6735 11.7094 19.6781 11.7281C19.6828 11.7469 19.7063 11.7844 19.7531 11.8312C19.8 11.8781 19.8281 11.9203 19.8469 11.9484C19.8636 11.9792 19.8712 12.014 19.8687 12.0489C19.8662 12.0838 19.8538 12.1173 19.8328 12.1453C19.8109 12.1772 19.7799 12.2017 19.7438 12.2156C19.7086 12.2318 19.6693 12.2367 19.6313 12.2297C19.5891 12.2203 19.5469 12.2016 19.5 12.1688C19.4297 12.1219 19.3875 12.0703 19.3735 12.0141C19.3582 11.9503 19.3683 11.8831 19.4016 11.8266L19.4063 11.8312ZM18.8625 11.475L18.9797 11.5359C18.9652 11.5683 18.9619 11.6046 18.9703 11.6391C18.9823 11.6712 19.0057 11.6979 19.036 11.7141C19.0735 11.7375 19.1016 11.7469 19.1297 11.7422C19.1578 11.7422 19.1766 11.7281 19.1906 11.7047C19.1978 11.6935 19.2011 11.6804 19.2 11.6672C19.2 11.6531 19.1906 11.6344 19.1766 11.6203C19.1526 11.5913 19.1276 11.5632 19.1016 11.5359C19.05 11.4844 19.0172 11.4422 19.0078 11.4047C19.0002 11.3806 18.9979 11.3551 19.0011 11.33C19.0044 11.3049 19.013 11.2808 19.0266 11.2594C19.0444 11.2304 19.0705 11.2076 19.1016 11.1938C19.1338 11.1789 19.1697 11.174 19.2047 11.1797C19.2481 11.187 19.2895 11.2029 19.3266 11.2266C19.3969 11.2734 19.4391 11.3203 19.4531 11.3719C19.4617 11.3982 19.4644 11.4261 19.4612 11.4536C19.458 11.4811 19.4488 11.5076 19.4344 11.5312L19.3172 11.4656C19.3313 11.4328 19.336 11.4094 19.3266 11.3859C19.3172 11.3625 19.2985 11.3391 19.2656 11.3203C19.2397 11.3017 19.2085 11.2918 19.1766 11.2922C19.1689 11.2927 19.1614 11.2951 19.1549 11.2992C19.1484 11.3033 19.1429 11.3089 19.1391 11.3156C19.1297 11.3297 19.1297 11.3437 19.1344 11.3625C19.1391 11.3812 19.1672 11.4188 19.2141 11.4656C19.261 11.5125 19.2938 11.55 19.3078 11.5781C19.3266 11.6075 19.3366 11.6417 19.3366 11.6766C19.3366 11.7114 19.3266 11.7456 19.3078 11.775C19.2876 11.8077 19.2583 11.8338 19.2235 11.85C19.1883 11.8662 19.149 11.8711 19.111 11.8641C19.0627 11.8559 19.0165 11.8384 18.975 11.8125C18.9144 11.7802 18.8677 11.7268 18.8438 11.6625C18.8257 11.5999 18.8324 11.5328 18.8625 11.475ZM18.1969 11.2969L18.5391 10.7344L18.9516 10.9922L18.8953 11.0859L18.5953 10.8984L18.5203 11.025L18.8016 11.1984L18.7406 11.2922L18.4594 11.1187L18.3656 11.2734L18.6797 11.4609L18.6235 11.5547L18.2016 11.2969H18.1969ZM17.2266 10.5L17.2781 10.4062L17.5313 10.5328L17.4141 10.7672C17.3766 10.7766 17.3297 10.7812 17.2735 10.7766C17.2194 10.7706 17.167 10.7547 17.1188 10.7297C17.0621 10.7021 17.0136 10.66 16.9781 10.6078C16.9459 10.5593 16.9295 10.502 16.9313 10.4438C16.9337 10.3831 16.9497 10.3239 16.9781 10.2703C17.0063 10.2139 17.0482 10.1656 17.1 10.1297C17.1496 10.0954 17.2085 10.0774 17.2688 10.0781C17.3156 10.0781 17.3625 10.0922 17.4188 10.125C17.4938 10.1578 17.5406 10.2047 17.5641 10.2563C17.5885 10.3074 17.5935 10.3657 17.5781 10.4203L17.4516 10.3828C17.4593 10.3514 17.456 10.3183 17.4422 10.2891C17.4281 10.2609 17.4047 10.2422 17.3672 10.2234C17.3454 10.211 17.3211 10.2033 17.2961 10.2008C17.271 10.1984 17.2457 10.2013 17.2219 10.2094C17.175 10.2234 17.1328 10.2656 17.1 10.3312C17.0672 10.3969 17.0531 10.4578 17.0672 10.5094C17.0737 10.5338 17.0854 10.5566 17.1016 10.576C17.1178 10.5954 17.1381 10.6111 17.161 10.6219C17.1844 10.6359 17.2125 10.6453 17.2406 10.6453C17.2686 10.6496 17.2971 10.6496 17.325 10.6453L17.3625 10.5703L17.2266 10.5ZM12.9985 9.45469L13.0922 8.79844L13.2891 8.83125L13.3406 9.29062L13.5235 8.86875L13.7203 8.89688L13.6266 9.54375L13.5 9.525L13.5797 9.01406L13.3735 9.50625L13.2469 9.4875L13.1953 8.95781L13.1203 9.47344L12.9985 9.45469ZM12.3375 9.375L12.3985 8.71875L12.8813 8.76562L12.8719 8.87812L12.5203 8.84531L12.5063 8.98594L12.8344 9.01875L12.8203 9.13125L12.4922 9.09844L12.4781 9.27656L12.8438 9.30938L12.8344 9.42188L12.3375 9.375Z" fill="#309E3A"/>
<path d="M10.1485 8.96641C10.1485 8.89609 10.1625 8.84453 10.1813 8.79766C10.1977 8.76432 10.2199 8.73416 10.2469 8.70859C10.2709 8.68434 10.2996 8.66521 10.3313 8.65234C10.3781 8.63828 10.425 8.62891 10.4719 8.62891C10.5703 8.62891 10.6453 8.66641 10.7063 8.72266C10.7353 8.75849 10.7568 8.79974 10.7697 8.84401C10.7826 8.88828 10.7865 8.93467 10.7813 8.98047C10.7813 9.08359 10.7485 9.16797 10.6875 9.22891C10.6562 9.25785 10.6192 9.2799 10.5788 9.29363C10.5384 9.30735 10.4956 9.31245 10.4531 9.30859C10.4112 9.30902 10.3697 9.30093 10.331 9.28481C10.2923 9.2687 10.2573 9.24489 10.2281 9.21484C10.1698 9.1458 10.1412 9.05649 10.1485 8.96641Z" fill="#309E3A"/>
<path d="M10.2844 8.96727C10.2844 9.03759 10.2985 9.09384 10.3313 9.13602C10.3641 9.17352 10.4063 9.19696 10.4625 9.19696C10.4869 9.19866 10.5113 9.19492 10.534 9.186C10.5567 9.17708 10.5771 9.16321 10.5938 9.1454C10.6266 9.1079 10.6407 9.05165 10.6454 8.97196C10.6454 8.89696 10.636 8.84071 10.5985 8.80321C10.5832 8.78432 10.5639 8.76905 10.5421 8.75851C10.5202 8.74797 10.4962 8.74243 10.4719 8.74227C10.4473 8.74149 10.4227 8.74611 10.4001 8.75583C10.3774 8.76555 10.3571 8.78012 10.3407 8.79852C10.3032 8.83602 10.2891 8.89227 10.2844 8.96727Z" fill="#F7FFFF"/>
<path d="M10.9219 9.30469L10.9312 8.64844H11.2125C11.2828 8.64844 11.3297 8.65781 11.3625 8.67188C11.3953 8.68125 11.4187 8.70469 11.4375 8.73281C11.4563 8.76094 11.4656 8.79844 11.4656 8.84063C11.466 8.88572 11.4492 8.92927 11.4188 8.9625C11.3841 8.99496 11.3395 9.01478 11.2922 9.01875L11.3625 9.075C11.3812 9.09375 11.4047 9.13125 11.4328 9.18281L11.5125 9.31406H11.3531L11.2594 9.16406L11.1938 9.07031C11.1824 9.05741 11.1678 9.04772 11.1516 9.04219C11.1302 9.03597 11.1081 9.03281 11.0859 9.03281H11.0578V9.30469H10.9219Z" fill="#309E3A"/>
<path d="M11.0625 8.93047H11.1562C11.2219 8.93047 11.2641 8.93047 11.2781 8.92109C11.2922 8.92109 11.3062 8.90703 11.3156 8.89766C11.325 8.88828 11.3297 8.86484 11.3297 8.85078C11.3297 8.82266 11.325 8.80391 11.3109 8.79453C11.3016 8.78047 11.2828 8.77109 11.2641 8.76641H11.1703L11.0625 8.76172V8.92578V8.93047Z" fill="white"/>
<path d="M11.6719 8.67969L11.9156 8.69375C11.9672 8.69375 12.0093 8.69844 12.0375 8.70781C12.074 8.72105 12.1063 8.74369 12.1312 8.77344C12.1582 8.80621 12.1775 8.84467 12.1875 8.88594C12.2015 8.92813 12.2062 8.97969 12.2015 9.04062C12.2015 9.08847 12.1936 9.13598 12.1781 9.18125C12.1593 9.22812 12.1312 9.26563 12.0984 9.29375C12.0711 9.31625 12.0391 9.33228 12.0047 9.34063C11.9765 9.35 11.9344 9.35 11.8875 9.35L11.639 9.33594L11.6719 8.67969Z" fill="#309E3A"/>
<path d="M11.7985 8.79688L11.775 9.23281H11.9531C11.9766 9.23281 11.9953 9.22344 12.0094 9.20938C12.0235 9.19531 12.0375 9.17656 12.0469 9.14844C12.0563 9.12031 12.0656 9.07813 12.0656 9.02656L12.061 8.90938C12.0543 8.88466 12.0414 8.86207 12.0235 8.84375C12.0079 8.82809 11.9885 8.81678 11.9672 8.81094C11.9318 8.80305 11.8957 8.79834 11.8594 8.79688H11.7985Z" fill="white"/>
<path d="M14.8875 9.85234L15.0421 9.21484L15.2484 9.26172L15.3984 9.30859C15.4312 9.32734 15.4593 9.35547 15.4734 9.39766C15.4921 9.43516 15.4921 9.47734 15.4828 9.52891C15.4734 9.56641 15.4593 9.59922 15.4359 9.62266C15.4187 9.64324 15.3972 9.65979 15.3729 9.67113C15.3486 9.68247 15.3221 9.68833 15.2953 9.68828C15.2625 9.68828 15.2156 9.67891 15.1546 9.66484L15.075 9.64141L15.0187 9.88516L14.8875 9.85234Z" fill="#309E3A"/>
<path d="M15.1405 9.35547L15.103 9.53359L15.1733 9.55234C15.2202 9.56172 15.2577 9.57109 15.2765 9.56641C15.2947 9.56388 15.3117 9.55575 15.3251 9.54316C15.3386 9.53057 15.3478 9.51413 15.3515 9.49609C15.3515 9.47266 15.3515 9.45391 15.3421 9.43516C15.3318 9.4161 15.3152 9.4012 15.2952 9.39297L15.2062 9.36953L15.1452 9.35547H15.1405Z" fill="white"/>
<path d="M15.4968 10.0367L15.7171 9.41797L15.975 9.51172C16.0453 9.53516 16.0875 9.55859 16.1156 9.57734C16.139 9.60078 16.1578 9.62422 16.1625 9.66172C16.1671 9.69922 16.1718 9.73203 16.1625 9.76953C16.1437 9.81641 16.1156 9.84922 16.0781 9.87266C16.0406 9.89141 15.9937 9.89609 15.9375 9.88672C15.9562 9.91016 15.975 9.93359 15.9843 9.96172L16.0218 10.0883L16.05 10.2336L15.9046 10.182L15.8578 10.0133C15.8492 9.97512 15.8383 9.93754 15.825 9.90078C15.8187 9.8862 15.8091 9.87333 15.7968 9.86328C15.7875 9.84922 15.7687 9.83984 15.7359 9.83047L15.7125 9.82109L15.6187 10.0836L15.4968 10.0367Z" fill="#309E3A"/>
<path d="M15.7499 9.72109L15.839 9.75391C15.8999 9.77734 15.9374 9.78672 15.9562 9.78672C15.9702 9.78672 15.9843 9.78672 15.9984 9.77266C16.0124 9.76328 16.0218 9.74922 16.0265 9.73047C16.0359 9.71172 16.0359 9.69297 16.0265 9.67422C16.0196 9.65605 16.0062 9.64105 15.989 9.63203L15.8952 9.59922L15.8015 9.56641L15.7452 9.72109H15.7499Z" fill="white"/>
<path d="M16.2656 10.0109C16.2817 9.95605 16.3088 9.90502 16.3453 9.86094C16.369 9.83266 16.3976 9.80884 16.4297 9.79062C16.4587 9.77421 16.4905 9.7631 16.5234 9.75781C16.5703 9.75781 16.6172 9.75781 16.6687 9.77656C16.7106 9.78693 16.7499 9.80608 16.7838 9.83275C16.8177 9.85942 16.8456 9.89299 16.8656 9.93125C16.9031 10.0062 16.9031 10.0953 16.875 10.1984C16.8518 10.287 16.7945 10.3629 16.7156 10.4094C16.6453 10.4516 16.5609 10.4563 16.4719 10.4281C16.4301 10.4175 16.391 10.3982 16.3571 10.3716C16.3232 10.3449 16.2952 10.3115 16.275 10.2734C16.2562 10.2325 16.2457 10.1882 16.2441 10.1431C16.2425 10.0981 16.2498 10.0532 16.2656 10.0109Z" fill="#309E3A"/>
<path d="M16.3969 10.0483C16.3781 10.1186 16.3734 10.1795 16.3969 10.2264C16.4203 10.2733 16.4531 10.3014 16.5047 10.3202C16.5515 10.3342 16.5984 10.3295 16.6453 10.3014C16.6922 10.278 16.7203 10.2264 16.7437 10.1514C16.7672 10.0811 16.7672 10.0249 16.7437 9.97799C16.7345 9.95575 16.7204 9.93582 16.7026 9.91962C16.6848 9.90341 16.6636 9.89134 16.6406 9.88424C16.6175 9.87628 16.593 9.87341 16.5687 9.87584C16.5445 9.87827 16.521 9.88593 16.5 9.8983C16.4531 9.92642 16.4203 9.9733 16.3969 10.0483Z" fill="white"/>
<path d="M17.5453 10.925L17.8453 10.3438L18.0937 10.4703C18.1406 10.4928 18.1833 10.5229 18.2203 10.5594C18.2437 10.5828 18.2578 10.6109 18.2578 10.6484C18.2578 10.6859 18.2578 10.7187 18.239 10.7516C18.221 10.7937 18.1874 10.8273 18.1453 10.8453C18.0984 10.8547 18.0515 10.8547 18 10.8359C18.0187 10.8641 18.0281 10.8922 18.0375 10.9156C18.0469 10.9437 18.0515 10.9859 18.0562 11.0469L18.0656 11.1969L17.925 11.1266L17.9062 10.9531C17.904 10.9138 17.8993 10.8747 17.8922 10.8359C17.889 10.8184 17.8808 10.8021 17.8687 10.7891L17.8125 10.7563L17.789 10.7422L17.6625 10.9859L17.5453 10.925Z" fill="#309E3A"/>
<path d="M17.8359 10.65L17.925 10.6969C17.9812 10.725 18.0188 10.7437 18.0328 10.7437C18.0469 10.7437 18.0656 10.7438 18.0797 10.7344C18.0938 10.7297 18.1031 10.7156 18.1125 10.6969C18.1219 10.6781 18.1266 10.6594 18.1219 10.6406C18.1161 10.622 18.1046 10.6056 18.0891 10.5938C18.0616 10.5769 18.0335 10.5613 18.0047 10.5469L17.9109 10.5L17.8359 10.65Z" fill="white"/>
<path d="M19.9734 12.1263C20.0038 12.0781 20.0436 12.0366 20.0906 12.0044C20.1221 11.9842 20.1571 11.9699 20.1937 11.9622C20.2278 11.9553 20.2628 11.9553 20.2969 11.9622C20.3437 11.9716 20.3859 11.9904 20.4281 12.0185C20.4646 12.0412 20.4959 12.0713 20.5201 12.1068C20.5444 12.1423 20.5609 12.1825 20.5687 12.2247C20.5828 12.3044 20.5594 12.3935 20.5031 12.4826C20.4561 12.56 20.3802 12.6156 20.2922 12.6372C20.2502 12.6463 20.2068 12.6464 20.1648 12.6375C20.1228 12.6286 20.0831 12.611 20.0484 12.5857C20.0119 12.563 19.9806 12.5329 19.9564 12.4974C19.9322 12.4619 19.9156 12.4217 19.9078 12.3794C19.8937 12.2951 19.9172 12.2107 19.9734 12.1263Z" fill="#309E3A"/>
<path d="M20.0906 12.202C20.0437 12.2629 20.0296 12.3192 20.039 12.3708C20.0424 12.3945 20.0509 12.4172 20.0639 12.4374C20.0768 12.4576 20.0939 12.4749 20.114 12.4879C20.1609 12.5208 20.2077 12.5301 20.2546 12.5161C20.3015 12.502 20.3484 12.4692 20.3906 12.4036C20.4327 12.3379 20.4515 12.2817 20.4421 12.2348C20.4374 12.1879 20.4093 12.1458 20.3671 12.1129C20.3249 12.0801 20.2734 12.0754 20.2265 12.0895C20.1796 12.0989 20.1327 12.1364 20.0859 12.202H20.0906Z" fill="white"/>
<path d="M14.1469 9.58438L14.2547 9.125L14.5922 9.20469L14.5781 9.27969L14.3297 9.22344L14.3062 9.32656L14.5359 9.37813L14.5172 9.45781L14.2875 9.40156L14.2594 9.52813L14.5172 9.58906L14.4984 9.66406L14.1469 9.58438Z" fill="#309E3A"/>
</g>
<defs>
<clipPath id="clip0_5639_39415">
<rect width="30" height="22.5" fill="white"/>
</clipPath>
</defs>
</svg>
